<?xml version="1.0" standalone="no"?>
<!DOCTYPE svg PUBLIC "-//W3C//DTD SVG 20010904//EN"
 "http://www.w3.org/TR/2001/REC-SVG-20010904/DTD/svg10.dtd">
<svg version="1.0" xmlns="http://www.w3.org/2000/svg"
 width="500.000000pt" height="500.000000pt" viewBox="0 0 500.000000 500.000000"
 preserveAspectRatio="xMidYMid meet">
<metadata>
Created by potrace 1.11, written by Peter Selinger 2001-2013
</metadata>
<g transform="translate(0.000000,500.000000) scale(0.100000,-0.100000)"
fill="#000000" stroke="none">
<path d="M0 2500 l0 -2500 2500 0 2500 0 0 2500 0 2500 -2500 0 -2500 0 0
-2500z m4454 618 l46 -22 0 -83 c0 -46 -4 -83 -9 -83 -4 0 -16 20 -26 45 -37
97 -109 143 -207 132 -89 -11 -154 -79 -145 -152 7 -54 52 -92 202 -175 65
-36 135 -77 156 -92 95 -68 122 -199 64 -308 -58 -106 -152 -148 -310 -137
-77 5 -188 37 -201 58 -10 17 7 210 19 206 5 -1 15 -24 22 -49 42 -167 262
-236 369 -117 63 69 58 158 -12 221 -21 19 -90 62 -153 97 -140 76 -210 143
-229 219 -27 115 44 221 171 257 73 20 183 13 243 -17z m-3324 -37 c0 -26 3
-69 6 -95 6 -42 5 -46 -13 -46 -16 0 -22 9 -27 40 -8 51 -25 87 -45 96 -24 12
-328 14 -357 4 l-24 -10 0 -171 0 -171 143 4 c101 2 149 7 160 16 9 8 21 38
28 68 12 53 23 72 32 57 3 -5 8 -74 12 -155 6 -129 5 -148 -8 -148 -9 0 -17
14 -22 36 -10 54 -25 82 -49 88 -29 8 -226 8 -265 0 l-31 -7 2 -185 3 -185 65
-16 c41 -10 66 -22 68 -31 2 -13 -24 -15 -183 -17 -202 -1 -236 8 -117 32 18
4 37 15 42 25 6 11 10 162 10 384 l0 366 -60 17 c-35 9 -60 22 -60 29 0 11 47
14 228 17 125 1 280 3 345 5 l117 2 0 -49z m605 18 c67 -34 107 -91 113 -163
8 -93 -22 -147 -113 -204 -22 -13 -42 -26 -44 -28 -7 -6 172 -305 209 -347 30
-34 52 -48 92 -59 93 -26 72 -38 -64 -38 l-123 1 -99 182 c-138 252 -125 237
-197 237 l-59 0 0 -168 c0 -120 4 -173 13 -186 7 -9 34 -23 62 -29 27 -7 50
-18 53 -25 3 -9 -43 -12 -188 -12 -149 0 -191 3 -188 12 3 7 29 16 59 21 29 4
58 12 64 18 6 6 10 142 10 375 0 415 6 386 -85 398 -33 4 -50 11 -50 21 0 22
23 24 260 22 220 -2 227 -3 275 -28z m938 15 c84 -22 132 -48 194 -106 101
-97 140 -200 130 -353 -8 -123 -52 -213 -138 -285 -104 -87 -198 -120 -336
-120 -143 0 -255 43 -342 132 -240 245 -120 651 217 732 78 19 201 19 275 0z
m1165 -97 c3 -113 -4 -117 -47 -24 -42 95 -36 92 -244 90 -134 -2 -183 -6
-189 -15 -4 -7 -7 -87 -5 -178 l2 -165 163 1 c103 0 166 4 173 11 6 6 15 33
20 59 9 45 23 74 33 63 2 -2 6 -77 9 -167 6 -179 -3 -203 -36 -94 -26 90 -33
93 -213 90 l-149 -3 -3 -182 c-2 -159 0 -183 15 -198 15 -15 38 -17 203 -14
182 4 187 5 226 30 29 19 51 48 78 98 40 76 63 93 52 39 -4 -18 -11 -69 -17
-113 -6 -44 -11 -80 -12 -81 -1 -1 -181 -4 -400 -6 -293 -2 -397 0 -397 8 0
16 24 24 70 24 70 0 70 0 69 288 -1 141 -4 311 -8 377 l-6 120 -62 9 c-41 6
-63 14 -63 23 0 11 67 13 368 11 l367 -3 3 -98z m-3253 -994 c15 -38 34 -76
42 -85 15 -17 13 -18 -27 -18 -33 0 -41 3 -32 12 17 17 -4 48 -32 48 -15 0
-26 -7 -29 -20 -3 -11 -1 -20 4 -20 5 0 9 -4 9 -10 0 -5 -15 -10 -32 -10 -28
1 -31 3 -18 13 9 7 23 32 33 57 9 25 21 57 26 73 6 15 15 27 20 27 5 0 21 -30
36 -67z m878 52 c1 -5 -6 -11 -15 -13 -11 -2 -18 3 -18 13 0 17 30 18 33 0z
m554 0 c9 -24 -5 -30 -25 -12 -25 23 -48 21 -66 -5 -22 -31 -20 -84 4 -108 25
-25 31 -25 64 1 31 25 43 20 26 -10 -16 -32 -92 -30 -125 4 -33 32 -33 83 0
119 19 21 33 26 70 26 32 0 47 -5 52 -15z m593 -58 c0 -43 5 -78 12 -85 9 -9
5 -12 -17 -12 l-30 0 0 77 c0 71 6 92 28 93 4 0 7 -33 7 -73z m380 58 c0 -8
-7 -15 -15 -15 -8 0 -15 7 -15 15 0 8 7 15 15 15 8 0 15 -7 15 -15z m370 -12
c0 -24 -2 -25 -12 -10 -7 9 -26 17 -43 19 -27 3 -30 0 -33 -29 -3 -28 0 -33
18 -33 11 0 23 7 26 15 10 25 22 17 20 -15 -1 -27 -16 -45 -16 -20 0 6 -11 10
-25 10 -21 0 -25 -5 -25 -30 0 -27 3 -30 32 -30 17 0 40 8 51 17 18 17 19 17
16 -7 -4 -24 -7 -25 -89 -27 -63 -2 -80 0 -67 8 13 8 17 24 17 74 0 50 -4 66
-17 74 -13 8 4 10 65 11 l82 0 0 -27z m970 12 c0 -8 -7 -15 -15 -15 -8 0 -15
7 -15 15 0 8 7 15 15 15 8 0 15 -7 15 -15z m190 -58 c0 -43 5 -78 12 -85 9 -9
5 -12 -17 -12 l-30 0 0 77 c0 71 6 92 28 93 4 0 7 -33 7 -73z m-1825 -5 c-22
-5 -21 -72 2 -72 12 0 14 -3 6 -11 -6 -6 -19 -9 -29 -7 -25 4 -36 85 -16 110
13 15 15 15 33 0 17 -14 17 -18 4 -20z m-1305 15 c14 4 20 0 20 -11 0 -9 -8
-16 -20 -16 -15 0 -20 -7 -20 -28 0 -15 5 -33 12 -40 9 -9 5 -12 -17 -12 -29
0 -30 2 -30 48 0 30 5 51 15 59 8 6 16 8 18 3 2 -4 12 -6 22 -3z m82 -94 c8
-10 2 -13 -28 -13 -25 0 -34 3 -26 9 9 5 13 23 11 50 -2 29 1 45 11 51 12 8
16 1 18 -38 2 -25 8 -52 14 -59z m777 95 c33 5 54 -22 49 -61 -1 -12 1 -28 5
-34 6 -10 -1 -13 -24 -13 -26 0 -30 3 -21 12 16 16 15 63 -1 76 -24 20 -40 -3
-34 -47 5 -41 5 -41 -26 -41 -21 0 -28 3 -19 9 8 5 12 23 10 47 -2 26 2 43 12
51 8 6 16 8 18 4 1 -4 15 -6 31 -3z m743 -48 l3 -60 -30 0 c-22 0 -26 3 -17
12 7 7 12 27 12 45 0 30 -2 32 -30 30 -27 -2 -30 -5 -30 -39 0 -20 6 -39 13
-41 6 -3 -5 -6 -27 -6 -33 -1 -37 1 -26 14 6 8 10 31 8 52 l-3 38 47 0 c25 0
50 3 54 8 17 16 22 4 26 -53z m513 45 l70 0 3 -40 c2 -22 8 -45 14 -52 8 -10
4 -13 -18 -13 -28 0 -29 2 -29 47 0 36 -4 48 -15 48 -11 0 -15 -12 -15 -48 0
-46 -1 -47 -30 -46 -16 0 -24 3 -17 6 14 5 17 79 3 87 -5 4 -17 3 -26 0 -14
-6 -16 -16 -12 -51 4 -39 2 -43 -17 -43 -18 0 -21 6 -21 47 0 31 5 52 15 60 8
6 17 8 20 5 3 -4 37 -7 75 -7z m145 6 c0 -4 11 -6 25 -3 34 6 55 -14 55 -52 0
-39 -15 -56 -52 -56 -23 0 -28 -4 -28 -24 0 -13 6 -27 13 -29 6 -3 -6 -6 -28
-6 -26 0 -35 2 -26 8 10 6 12 28 9 85 -2 46 1 78 7 80 17 7 25 6 25 -3z m160
-4 c14 4 20 0 20 -11 0 -11 -7 -16 -17 -14 -26 4 -31 -51 -7 -69 16 -12 14
-13 -17 -13 -34 0 -34 0 -34 47 0 31 5 52 15 60 8 6 16 8 18 3 2 -4 12 -6 22
-3z m459 -3 c13 -2 32 1 43 7 16 9 18 5 18 -45 0 -34 5 -56 13 -59 6 -3 -6 -5
-28 -5 -22 0 -34 2 -27 5 6 2 12 22 12 43 0 37 -1 39 -30 37 -27 -2 -30 -5
-30 -39 0 -20 6 -39 13 -41 6 -3 -5 -6 -27 -6 -33 -1 -37 1 -26 14 7 8 10 29
8 47 -5 33 10 60 27 50 5 -3 20 -7 34 -8z m-3545 -9 c6 -17 -9 -21 -19 -5 -8
13 -35 13 -35 1 0 -6 12 -16 28 -23 19 -9 27 -21 27 -38 0 -21 -5 -25 -36 -28
-25 -2 -38 2 -42 12 -4 9 -2 18 2 21 5 3 11 -2 15 -10 6 -17 32 -20 41 -5 3 6
-5 14 -20 20 -49 18 -46 70 4 70 16 0 31 -6 35 -15z m105 -7 c-1 -13 1 -31 6
-41 11 -26 -13 -49 -49 -45 -22 2 -32 9 -35 23 -3 19 -3 19 16 3 22 -20 39
-23 48 -8 4 6 -7 15 -23 21 -56 19 -48 69 10 69 25 0 29 -4 27 -22z m119 10
c25 -25 14 -39 -23 -32 -27 5 -35 3 -35 -9 0 -22 27 -40 50 -34 24 6 27 -8 4
-17 -44 -17 -84 7 -84 49 0 45 58 73 88 43z m112 -3 c0 -13 -3 -13 -20 -3 -14
9 -22 10 -31 1 -8 -8 -2 -13 20 -21 36 -13 49 -36 30 -58 -18 -22 -73 -15 -78
11 -3 19 -3 19 16 3 24 -22 43 -23 43 -4 0 8 -11 17 -25 20 -52 13 -39 66 16
66 19 0 29 -5 29 -15z m110 0 c0 -8 -4 -15 -10 -15 -5 0 -10 5 -10 10 0 6 -9
10 -21 10 -27 0 -19 -23 11 -30 58 -14 45 -74 -14 -68 -22 2 -32 9 -35 23 -3
19 -3 19 16 3 24 -22 43 -23 43 -4 0 8 -10 16 -21 18 -31 4 -46 32 -30 52 17
21 71 21 71 1z m128 3 c7 -7 12 -26 12 -43 0 -37 -16 -55 -48 -55 -41 0 -62
18 -62 53 0 41 15 57 55 57 17 0 36 -5 43 -12z m286 0 c3 -7 6 -31 9 -54 l5
-41 -49 -1 c-43 -1 -49 2 -49 19 0 14 10 25 30 32 18 7 30 19 30 29 0 23 -19
23 -36 1 -7 -10 -16 -15 -20 -11 -4 4 -1 14 6 23 15 18 69 20 74 3z m196 -8
c12 -22 8 -24 -42 -20 -19 1 -28 -3 -28 -13 0 -22 27 -40 50 -34 24 6 27 -8 4
-17 -62 -24 -111 38 -67 86 22 25 69 24 83 -2z m364 4 c21 -20 20 -58 0 -79
-25 -24 -75 -16 -93 16 -13 24 -13 29 2 53 20 30 66 35 91 10z m256 -1 c0 -13
-3 -14 -12 -5 -7 7 -18 12 -25 12 -22 0 -14 -20 12 -30 31 -12 41 -35 25 -55
-16 -20 -69 -19 -77 0 -8 23 7 33 18 12 11 -19 34 -23 44 -7 3 6 -6 15 -22 21
-35 13 -44 28 -32 51 13 24 69 25 69 1z m70 -28 c0 -37 3 -45 19 -45 22 0 34
45 19 73 -8 16 -6 18 14 15 20 -3 23 -8 20 -45 -1 -29 2 -43 10 -43 10 0 10
-3 -1 -9 -21 -13 -101 -12 -106 2 -2 7 -6 31 -8 55 -4 36 -3 42 14 42 16 0 19
-7 19 -45z m352 28 c22 -20 23 -51 1 -75 -32 -36 -103 -12 -103 35 0 49 64 75
102 40z m286 -31 c2 -27 7 -40 14 -36 6 4 9 1 6 -7 -6 -18 -100 -19 -105 -2
-3 7 9 21 26 30 17 10 31 26 31 36 0 21 -18 23 -26 2 -7 -16 -34 -21 -34 -5 0
15 33 30 60 27 22 -2 25 -7 28 -45z m832 28 c11 -21 8 -23 -27 -20 -34 2 -45
-8 -32 -32 8 -14 18 -19 35 -15 16 3 23 0 21 -7 -2 -6 -19 -11 -37 -11 -27 0
-38 6 -49 26 -13 24 -13 29 2 53 22 33 71 36 87 6z m105 9 c10 -16 -4 -24 -17
-11 -15 15 -38 16 -38 1 0 -5 14 -15 31 -21 25 -8 30 -15 27 -37 -3 -22 -8
-26 -38 -26 -27 0 -36 5 -39 20 -3 19 -3 19 16 3 22 -20 43 -24 43 -8 0 6 -11
15 -25 20 -49 19 -46 70 4 70 16 0 33 -5 36 -11z m119 -1 c3 -7 6 -31 9 -54
l5 -41 -49 -1 c-43 -1 -49 2 -49 19 0 14 10 25 30 32 18 7 30 19 30 29 0 23
-19 23 -36 1 -7 -10 -16 -15 -20 -11 -4 4 -1 14 6 23 15 18 69 20 74 3z m282
1 c4 -6 8 -23 9 -38 2 -14 4 -32 6 -40 3 -11 -8 -15 -45 -15 -59 -1 -71 17
-27 41 17 10 31 26 31 36 0 21 -18 23 -26 2 -4 -8 -13 -15 -22 -15 -13 0 -12
3 3 20 20 22 60 27 71 9z"/>
<path d="M1458 3084 c-11 -11 -10 -352 1 -358 16 -10 162 13 191 30 41 25 74
89 74 145 0 65 -40 131 -97 158 -45 22 -157 39 -169 25z"/>
<path d="M2415 3086 c-132 -41 -220 -177 -232 -361 -13 -185 76 -358 215 -423
48 -22 64 -24 145 -20 185 9 282 93 317 275 18 93 8 263 -20 336 -30 80 -106
157 -183 185 -66 25 -176 29 -242 8z"/>
<path d="M527 2016 c-3 -8 1 -17 9 -20 9 -4 14 1 14 14 0 23 -15 27 -23 6z"/>
<path d="M3652 1973 c2 -30 7 -38 23 -38 16 0 20 7 20 35 0 29 -4 36 -23 38
-21 3 -23 0 -20 -35z"/>
<path d="M782 2008 c3 -7 13 -15 22 -16 12 -3 17 1 14 10 -3 7 -13 15 -22 16
-12 3 -17 -1 -14 -10z"/>
<path d="M895 2010 c-3 -5 3 -10 14 -10 12 0 21 5 21 10 0 6 -6 10 -14 10 -8
0 -18 -4 -21 -10z"/>
<path d="M1234 2007 c-3 -9 -4 -28 -2 -44 2 -20 8 -28 23 -28 17 0 20 7 20 40
0 30 -4 41 -18 43 -9 2 -20 -3 -23 -11z"/>
<path d="M1537 1963 c-12 -11 -8 -23 8 -23 8 0 15 7 15 15 0 16 -12 20 -23 8z"/>
<path d="M1715 2010 c-3 -5 3 -10 14 -10 12 0 21 5 21 10 0 6 -6 10 -14 10 -8
0 -18 -4 -21 -10z"/>
<path d="M2082 1978 c3 -48 31 -66 43 -28 11 34 -3 70 -26 70 -18 0 -20 -5
-17 -42z"/>
<path d="M2755 2001 c-8 -27 4 -71 21 -71 20 0 35 36 28 65 -7 30 -40 34 -49
6z"/>
<path d="M3056 1955 c-3 -9 0 -15 9 -15 8 0 15 7 15 15 0 8 -4 15 -9 15 -5 0
-11 -7 -15 -15z"/>
<path d="M3880 2010 c0 -5 9 -10 21 -10 11 0 17 5 14 10 -3 6 -13 10 -21 10
-8 0 -14 -4 -14 -10z"/>
<path d="M4117 1963 c-12 -11 -8 -23 8 -23 8 0 15 7 15 15 0 16 -12 20 -23 8z"/>
<path d="M4407 1963 c-4 -3 -7 -13 -7 -21 0 -12 3 -12 15 -2 8 7 15 16 15 21
0 11 -14 12 -23 2z"/>
</g>
</svg>
